<svg xmlns="http://www.w3.org/2000/svg" width="26" height="32" viewBox="0 0 26 32">
    <defs>
        <linearGradient id="kfckez0dka" x1="83.008%" x2="16.992%" y1="100%" y2="0%">
            <stop offset="0%" stop-color="#EF5C3A"/>
            <stop offset="100%" stop-color="red"/>
        </linearGradient>
    </defs>
    <g fill="none" fill-rule="evenodd">
        <g fill="url(#kfckez0dka)" transform="translate(-372 -968)">
            <path d="M384.41 1000c-.63-.027-1.258-.099-1.878-.214-1.753-.327-3.428-1.008-4.902-1.992-1.598-1.067-2.952-2.49-3.92-4.124-.708-1.198-1.212-2.513-1.48-3.874-.146-.744-.221-1.5-.228-2.258v-.088c-.002-.03-.001-.06-.002-.092-.01-1.1.206-2.199.598-3.233.495-1.306 1.26-2.515 2.194-3.582.286-.325.588-.643.911-.93l.043-.037.037-.034c1.3-1.18 2.557-2.398 3.75-3.683.965-1.042 1.885-2.12 2.717-3.263.612-.842 1.183-1.72 1.634-2.645.176-.362.337-.735.451-1.117.032-.105.062-.212.078-.32l.009-.056c.004-.018.008-.037.014-.054.01-.03.021-.058.035-.084.016-.032.034-.062.055-.09.092-.12.235-.203.388-.224l.031-.004c.02-.002.04-.002.061-.002h.024l.019.002h.012c.032.004.048.007.076.013.12.029.223.089.301.173.048.05.086.106.127.16 1.784 2.351 3.205 4.958 4.304 7.679.698 1.726 1.269 3.498 1.706 5.304.1.418.195.838.28 1.259.422-.665.718-1.395.832-2.16.13-.87.026-1.77-.316-2.592-.057-.135-.117-.267-.193-.394l-.029-.052c-.02-.046-.027-.057-.04-.105-.047-.183.005-.387.137-.527.118-.124.295-.195.471-.184.117.006.231.047.324.116l.045.036.014.013c1.421 1.289 2.549 2.842 3.362 4.555.662 1.39 1.119 2.873 1.366 4.391.085.524.148 1.052.168 1.582.007.173.004.348 0 .521-.045 1.543-.384 3.078-1.003 4.505-.735 1.692-1.856 3.223-3.268 4.461-1.483 1.3-3.274 2.261-5.187 2.784-.96.263-1.95.416-2.947.46v-.02c.832-.09 1.639-.371 2.336-.817.826-.527 1.495-1.28 1.908-2.15.316-.665.481-1.399.483-2.129.002-.55-.134-1.089-.306-1.61-.27-.822-.645-1.612-1.049-2.383-.56-1.07-1.189-2.106-1.848-3.122-.51-.787-1.038-1.565-1.59-2.322-.026-.034-.05-.069-.078-.1-.074-.083-.172-.144-.28-.175-.048-.013-.06-.013-.11-.02-.037-.002-.075-.004-.112 0-.131.012-.257.068-.352.155-.036.033-.043.044-.073.082l-.004.005-.27.373c-.639.898-1.254 1.818-1.838 2.754-.582.933-1.137 1.885-1.624 2.87-.33.667-.634 1.351-.852 2.061-.137.447-.24.905-.249 1.366-.007.425.045.841.146 1.25.262 1.06.885 2.031 1.747 2.734.8.653 1.797 1.065 2.833 1.179v.019z"/>
        </g>
    </g>
</svg>
