<svg xmlns="http://www.w3.org/2000/svg" width="16" height="16" viewBox="0 0 16 16">
    <path fill="#404A51" fill-rule="evenodd" d="M10.5 0A5.5 5.5 0 0 1 16 5.5v3h-4l.001 1.75c.303.229.499.592.499 1v3.5a1.25 1.25 0 1 1-2.5 0v-3.5c0-.409.196-.772.5-1V0zM6.75 0a.75.75 0 0 1 .75.75v3.5a3.751 3.751 0 0 1-3 3.675l.001 2.326c.303.228.499.59.499.999v3.5a1.25 1.25 0 1 1-2.5 0v-3.5c0-.409.196-.772.5-1V7.925A3.751 3.751 0 0 1 0 4.25V.75a.75.75 0 1 1 1.5 0v3.249h.014A2.25 2.25 0 0 0 3 6.372L3 .751a.75.75 0 1 1 1.5 0v5.622A2.25 2.25 0 0 0 5.986 4L6 3.999V.75A.75.75 0 0 1 6.75 0z"/>
</svg>