<svg width="15" height="20" xmlns="http://www.w3.org/2000/svg"><path d="M7.5 12.5c2.515 0 4.72.465 6.616 1.394.541.266.884.816.884 1.418v.03a3 3 0 01-.504 1.664l-.746 1.119A4.21 4.21 0 0110.247 20H4.753a4.21 4.21 0 01-3.503-1.875l-.746-1.12A3 3 0 010 15.343v-.03c0-.602.343-1.152.884-1.418 1.896-.93 4.1-1.394 6.616-1.394zM7.494 0C10.6 0 12.43 2.518 12.43 5.625c0 1.954-.882 3.626-2.192 4.634-.774.595-1.592.991-2.745.991-1.16 0-2.089-.578-2.844-1.18-1.267-1.01-1.978-2.499-1.978-4.445C2.672 2.518 4.387 0 7.494 0z" fill="#404A51" fill-rule="evenodd"/></svg>